<?xml version="1.0" encoding="utf-8"?>
<!-- Uploaded to: SVG Repo, www.svgrepo.com, Generator: SVG Repo Mixer Tools -->
<svg fill="#000000" version="1.1" id="Layer_1" xmlns="http://www.w3.org/2000/svg" xmlns:xlink="http://www.w3.org/1999/xlink" 
	 width="800px" height="800px" viewBox="0 0 248 256" enable-background="new 0 0 248 256" xml:space="preserve">
<path d="M78.148,193.806l-50.096,31.767l1.754,16.614h3.299c7.436,0,14.037,4.758,16.389,11.813h-31.5l-5.719-35.002
	c-0.506-3.095,0.873-6.195,3.509-7.892l37.1-23.882c1.256-0.807,2.078-2.14,2.237-3.624l1.026-9.548
	C62.406,181.137,69.907,187.883,78.148,193.806z M189.275,197.891l19.688,44.297L218.806,254h19.688
	c-2.504-5.08-6.952-8.937-12.336-10.696l-3.414-1.116l-12.797-44.297l-2.778-19.311c-6.067,4.224-12.686,7.699-19.735,10.278
	L189.275,197.891z M244.841,127.237l-6.347-3.175v-5.906l3.938-5.906l-28.737-12.772c-3.976-1.767-8.641-0.715-11.472,2.589
	l-18.854,21.996c0,0-75.489-14.889-87.568-17.629c-25.258-5.73-45.551-12.215-59.581-22.927
	C21.589,72.334,14.133,58.098,14.057,41.194c0.098-15.115,12.424-27.382,27.562-27.382c15.198,0,27.562,12.364,27.562,27.563
	c0,3.262,2.644,5.906,5.906,5.906s5.906-2.644,5.906-5.906C80.994,19.663,63.331,2,41.619,2C22.702,2,6.252,16.122,2.804,34.733
	c-3.677,19.85,6.166,47.74,36.182,64.774c8.216,4.663,22.788,10.611,26.25,11.902c-9.493,6.39-15.743,17.228-15.743,29.532
	c0,6.795,1.826,13.192,5.222,18.534c10.774,16.944,33.132,31.501,33.132,31.501c0.012,0.008,0.024,0.017,0.036,0.025l-18.703,51.188
	L80.994,254h27.563c-2.352-7.054-8.953-11.813-16.389-11.813H86.9l27.364-47.431c1.35-2.339,1.407-5.205,0.151-7.596l-12.53-23.863
	c0,0,17.097,19.198,47.094,22.412l-12.86,56.479L143.994,254h19.688c-2.546-5.091-6.781-9.139-11.983-11.451l-0.814-0.361
	l17.719-44.297l14.724-15.94c18.509-6.403,33.885-19.511,43.174-35.766l12.539-5.016c2.151-0.86,3.813-2.624,4.546-4.821
	l2.242-6.727C246.139,128.691,245.717,127.675,244.841,127.237z"/>
</svg>